<svg width="67" height="36" viewBox="0 0 67 36" fill="none" xmlns="http://www.w3.org/2000/svg">
<g clip-path="url(#clip0_72_1885)">
<mask id="mask0_72_1885" style="mask-type:luminance" maskUnits="userSpaceOnUse" x="0" y="0" width="67" height="35">
<path d="M66.0482 0H0.388184V34.6667H66.0482V0Z" fill="white"/>
</mask>
<g mask="url(#mask0_72_1885)">
<path d="M0.388184 12.1333V0H7.52516V1.73333H8.71461V6.93333H7.52516V8.66667H2.76717V12.1333H0.388184ZM2.76717 6.93333H6.33565V1.73333H2.76717V6.93333ZM11.0937 12.1333V10.4H9.90413V8.66667H11.0937V6.93333H15.8516V5.2H11.0937V3.46667H17.0411V5.2H18.2306V12.1333H11.0937ZM12.2831 10.4H15.8516V8.66667H12.2831V10.4ZM22.9886 5.2H24.178V6.93333H22.9886V12.1333H20.6095V3.46667H22.9886V5.2ZM27.7465 3.46667V5.2H24.178V3.46667H27.7465ZM32.5045 12.1333V5.2H30.1255V3.46667H32.5045V0H34.8835V3.46667H37.2624V5.2H34.8835V12.1333H32.5045ZM39.6414 13.8667V12.1333H44.3994V10.4H39.6414V8.66667H38.452V3.46667H40.8309V8.66667H44.3994V3.46667H46.7784V12.1333H45.5889V13.8667H39.6414ZM3.95666 32.9333V22.5333H1.57767V20.8H8.71461V22.5333H6.33565V32.9333H3.95666ZM11.0937 32.9333V31.2H9.90413V26H11.0937V24.2667H17.0411V26H18.2306V31.2H17.0411V32.9333H11.0937ZM12.2831 31.2H15.8516V26H12.2831V31.2ZM19.4201 32.9333V24.2667H26.557V26H27.7465V32.9333H25.3675V26H21.799V32.9333H19.4201ZM32.5045 22.5333V20.8H34.8835V22.5333H32.5045ZM30.1255 32.9333V31.2H32.5045V26H31.315V24.2667H34.8835V31.2H37.2624V32.9333H30.1255ZM39.6414 34.6667V32.9333H44.3994V31.2H39.6414V29.4667H38.452V26H39.6414V24.2667H46.7784V32.9333H45.5889V34.6667H39.6414ZM40.8309 29.4667H44.3994V26H40.8309V29.4667ZM47.9679 32.9333V20.8H50.3469V24.2667H55.1049V26H56.2943V32.9333H53.9154V26H50.3469V32.9333H47.9679ZM61.0523 32.9333V26H58.6733V24.2667H61.0523V20.8H63.4313V24.2667H65.8103V26H63.4313V32.9333H61.0523Z" fill="#8248F5"/>
</g>
<mask id="mask1_72_1885" style="mask-type:luminance" maskUnits="userSpaceOnUse" x="0" y="0" width="67" height="36">
<path d="M66.5243 0.666504H0.864258V35.3332H66.5243V0.666504Z" fill="white"/>
</mask>
<g mask="url(#mask1_72_1885)">
<path d="M0.864258 12.7998V0.666504H8.00124V2.39984H9.19069V7.59984H8.00124V9.33317H3.24325V12.7998H0.864258ZM3.24325 7.59984H6.81172V2.39984H3.24325V7.59984ZM11.5697 12.7998V11.0665H10.3802V9.33317H11.5697V7.59984H16.3277V5.8665H11.5697V4.13317H17.5172V5.8665H18.7066V12.7998H11.5697ZM12.7592 11.0665H16.3277V9.33317H12.7592V11.0665ZM23.4646 5.8665H24.6541V7.59984H23.4646V12.7998H21.0857V4.13317H23.4646V5.8665ZM28.2226 4.13317V5.8665H24.6541V4.13317H28.2226ZM32.9806 12.7998V5.8665H30.6016V4.13317H32.9806V0.666504H35.3595V4.13317H37.7385V5.8665H35.3595V12.7998H32.9806ZM40.1175 14.5332V12.7998H44.8755V11.0665H40.1175V9.33317H38.928V4.13317H41.307V9.33317H44.8755V4.13317H47.2545V12.7998H46.065V14.5332H40.1175ZM4.43274 33.5998V23.1998H2.05376V21.4665H9.19069V23.1998H6.81172V33.5998H4.43274ZM11.5697 33.5998V31.8665H10.3802V26.6665H11.5697V24.9332H17.5172V26.6665H18.7066V31.8665H17.5172V33.5998H11.5697ZM12.7592 31.8665H16.3277V26.6665H12.7592V31.8665ZM19.8962 33.5998V24.9332H27.0331V26.6665H28.2226V33.5998H25.8436V26.6665H22.2751V33.5998H19.8962ZM32.9806 23.1998V21.4665H35.3595V23.1998H32.9806ZM30.6016 33.5998V31.8665H32.9806V26.6665H31.7911V24.9332H35.3595V31.8665H37.7385V33.5998H30.6016ZM40.1175 35.3332V33.5998H44.8755V31.8665H40.1175V30.1332H38.928V26.6665H40.1175V24.9332H47.2545V33.5998H46.065V35.3332H40.1175ZM41.307 30.1332H44.8755V26.6665H41.307V30.1332ZM48.444 33.5998V21.4665H50.8229V24.9332H55.581V26.6665H56.7704V33.5998H54.3914V26.6665H50.8229V33.5998H48.444ZM61.5284 33.5998V26.6665H59.1494V24.9332H61.5284V21.4665H63.9074V24.9332H66.2863V26.6665H63.9074V33.5998H61.5284Z" fill="#8248F5"/>
</g>
<mask id="mask2_72_1885" style="mask-type:luminance" maskUnits="userSpaceOnUse" x="1" y="1" width="66" height="35">
<path d="M66.9998 1.3335H1.33984V36.0002H66.9998V1.3335Z" fill="white"/>
</mask>
<g mask="url(#mask2_72_1885)">
<path d="M1.33984 13.4668V1.3335H8.47682V3.06683H9.66627V8.26683H8.47682V10.0002H3.71883V13.4668H1.33984ZM3.71883 8.26683H7.2873V3.06683H3.71883V8.26683ZM12.0453 13.4668V11.7335H10.8558V10.0002H12.0453V8.26683H16.8032V6.5335H12.0453V4.80016H17.9928V6.5335H19.1822V13.4668H12.0453ZM13.2348 11.7335H16.8032V10.0002H13.2348V11.7335ZM23.9402 6.5335H25.1297V8.26683H23.9402V13.4668H21.5612V4.80016H23.9402V6.5335ZM28.6982 4.80016V6.5335H25.1297V4.80016H28.6982ZM33.4562 13.4668V6.5335H31.0772V4.80016H33.4562V1.3335H35.8351V4.80016H38.2141V6.5335H35.8351V13.4668H33.4562ZM40.5931 15.2002V13.4668H45.3511V11.7335H40.5931V10.0002H39.4036V4.80016H41.7826V10.0002H45.3511V4.80016H47.73V13.4668H46.5406V15.2002H40.5931ZM4.90832 34.2668V23.8668H2.52934V22.1335H9.66627V23.8668H7.2873V34.2668H4.90832ZM12.0453 34.2668V32.5335H10.8558V27.3335H12.0453V25.6002H17.9928V27.3335H19.1822V32.5335H17.9928V34.2668H12.0453ZM13.2348 32.5335H16.8032V27.3335H13.2348V32.5335ZM20.3717 34.2668V25.6002H27.5087V27.3335H28.6982V34.2668H26.3192V27.3335H22.7507V34.2668H20.3717ZM33.4562 23.8668V22.1335H35.8351V23.8668H33.4562ZM31.0772 34.2668V32.5335H33.4562V27.3335H32.2666V25.6002H35.8351V32.5335H38.2141V34.2668H31.0772ZM40.5931 36.0002V34.2668H45.3511V32.5335H40.5931V30.8002H39.4036V27.3335H40.5931V25.6002H47.73V34.2668H46.5406V36.0002H40.5931ZM41.7826 30.8002H45.3511V27.3335H41.7826V30.8002ZM48.9196 34.2668V22.1335H51.2985V25.6002H56.0565V27.3335H57.246V34.2668H54.867V27.3335H51.2985V34.2668H48.9196ZM62.004 34.2668V27.3335H59.625V25.6002H62.004V22.1335H64.383V25.6002H66.7619V27.3335H64.383V34.2668H62.004Z" fill="#8248F5"/>
</g>
</g>
<defs>
<clipPath id="clip0_72_1885">
<rect width="67" height="36" fill="white"/>
</clipPath>
</defs>
</svg>
