<svg width="90" height="45" viewBox="0 0 90 45" fill="none" xmlns="http://www.w3.org/2000/svg">
<g clip-path="url(#clip0_72_1869)">
<mask id="mask0_72_1869" style="mask-type:luminance" maskUnits="userSpaceOnUse" x="0" y="0" width="89" height="44">
<path d="M88.7215 0H0.521484V43.3333H88.7215V0Z" fill="white"/>
</mask>
<g mask="url(#mask0_72_1869)">
<path d="M0.521484 15.1667V0H10.1085V2.16667H11.7062V8.66667H10.1085V10.8333H3.71713V15.1667H0.521484ZM3.71713 8.66667H8.51061V2.16667H3.71713V8.66667ZM14.902 15.1667V13H13.3041V10.8333H14.902V8.66667H21.2932V6.5H14.902V4.33333H22.8911V6.5H24.4889V15.1667H14.902ZM16.4997 13H21.2932V10.8333H16.4997V13ZM30.8802 6.5H32.478V8.66667H30.8802V15.1667H27.6845V4.33333H30.8802V6.5ZM37.2715 4.33333V6.5H32.478V4.33333H37.2715ZM43.6628 15.1667V6.5H40.4671V4.33333H43.6628V0H46.8584V4.33333H50.0541V6.5H46.8584V15.1667H43.6628ZM53.2497 17.3333V15.1667H59.6411V13H53.2497V10.8333H51.6519V4.33333H54.8476V10.8333H59.6411V4.33333H62.8367V15.1667H61.2389V17.3333H53.2497ZM5.31497 41.1667V28.1667H2.11931V26H11.7062V28.1667H8.51061V41.1667H5.31497ZM14.902 41.1667V39H13.3041V32.5H14.902V30.3333H22.8911V32.5H24.4889V39H22.8911V41.1667H14.902ZM16.4997 39H21.2932V32.5H16.4997V39ZM26.0867 41.1667V30.3333H35.6737V32.5H37.2715V41.1667H34.0758V32.5H29.2823V41.1667H26.0867ZM43.6628 28.1667V26H46.8584V28.1667H43.6628ZM40.4671 41.1667V39H43.6628V32.5H42.065V30.3333H46.8584V39H50.0541V41.1667H40.4671ZM53.2497 43.3333V41.1667H59.6411V39H53.2497V36.8333H51.6519V32.5H53.2497V30.3333H62.8367V41.1667H61.2389V43.3333H53.2497ZM54.8476 36.8333H59.6411V32.5H54.8476V36.8333ZM64.4345 41.1667V26H67.6302V30.3333H74.0215V32.5H75.6193V41.1667H72.4237V32.5H67.6302V41.1667H64.4345ZM82.0106 41.1667V32.5H78.8149V30.3333H82.0106V26H85.2063V30.3333H88.4019V32.5H85.2063V41.1667H82.0106Z" fill="#8248F5"/>
</g>
<mask id="mask1_72_1869" style="mask-type:luminance" maskUnits="userSpaceOnUse" x="1" y="0" width="89" height="45">
<path d="M89.3606 0.833496H1.16064V44.1668H89.3606V0.833496Z" fill="white"/>
</mask>
<g mask="url(#mask1_72_1869)">
<path d="M1.16064 16.0002V0.833496H10.7476V3.00016H12.3454V9.50016H10.7476V11.6668H4.3563V16.0002H1.16064ZM4.3563 9.50016H9.14977V3.00016H4.3563V9.50016ZM15.5411 16.0002V13.8335H13.9433V11.6668H15.5411V9.50016H21.9324V7.3335H15.5411V5.16683H23.5302V7.3335H25.128V16.0002H15.5411ZM17.1389 13.8335H21.9324V11.6668H17.1389V13.8335ZM31.5194 7.3335H33.1171V9.50016H31.5194V16.0002H28.3237V5.16683H31.5194V7.3335ZM37.9106 5.16683V7.3335H33.1171V5.16683H37.9106ZM44.302 16.0002V7.3335H41.1063V5.16683H44.302V0.833496H47.4976V5.16683H50.6932V7.3335H47.4976V16.0002H44.302ZM53.889 18.1668V16.0002H60.2802V13.8335H53.889V11.6668H52.2911V5.16683H55.4867V11.6668H60.2802V5.16683H63.4758V16.0002H61.8781V18.1668H53.889ZM5.95413 42.0002V29.0002H2.75848V26.8335H12.3454V29.0002H9.14977V42.0002H5.95413ZM15.5411 42.0002V39.8335H13.9433V33.3335H15.5411V31.1668H23.5302V33.3335H25.128V39.8335H23.5302V42.0002H15.5411ZM17.1389 39.8335H21.9324V33.3335H17.1389V39.8335ZM26.7259 42.0002V31.1668H36.3129V33.3335H37.9106V42.0002H34.715V33.3335H29.9215V42.0002H26.7259ZM44.302 29.0002V26.8335H47.4976V29.0002H44.302ZM41.1063 42.0002V39.8335H44.302V33.3335H42.7041V31.1668H47.4976V39.8335H50.6932V42.0002H41.1063ZM53.889 44.1668V42.0002H60.2802V39.8335H53.889V37.6668H52.2911V33.3335H53.889V31.1668H63.4758V42.0002H61.8781V44.1668H53.889ZM55.4867 37.6668H60.2802V33.3335H55.4867V37.6668ZM65.0737 42.0002V26.8335H68.2693V31.1668H74.6607V33.3335H76.2585V42.0002H73.0628V33.3335H68.2693V42.0002H65.0737ZM82.6498 42.0002V33.3335H79.4541V31.1668H82.6498V26.8335H85.8454V31.1668H89.0411V33.3335H85.8454V42.0002H82.6498Z" fill="#8248F5"/>
</g>
<mask id="mask2_72_1869" style="mask-type:luminance" maskUnits="userSpaceOnUse" x="1" y="1" width="89" height="44">
<path d="M89.9998 1.6665H1.7998V44.9998H89.9998V1.6665Z" fill="white"/>
</mask>
<g mask="url(#mask2_72_1869)">
<path d="M1.7998 16.8332V1.6665H11.3868V3.83317H12.9846V10.3332H11.3868V12.4998H4.99545V16.8332H1.7998ZM4.99545 10.3332H9.78892V3.83317H4.99545V10.3332ZM16.1803 16.8332V14.6665H14.5824V12.4998H16.1803V10.3332H22.5715V8.1665H16.1803V5.99984H24.1694V8.1665H25.7672V16.8332H16.1803ZM17.778 14.6665H22.5715V12.4998H17.778V14.6665ZM32.1585 8.1665H33.7563V10.3332H32.1585V16.8332H28.9629V5.99984H32.1585V8.1665ZM38.5498 5.99984V8.1665H33.7563V5.99984H38.5498ZM44.9411 16.8332V8.1665H41.7455V5.99984H44.9411V1.6665H48.1368V5.99984H51.3324V8.1665H48.1368V16.8332H44.9411ZM54.5281 18.9998V16.8332H60.9194V14.6665H54.5281V12.4998H52.9302V5.99984H56.1259V12.4998H60.9194V5.99984H64.115V16.8332H62.5172V18.9998H54.5281ZM6.59329 42.8332V29.8332H3.39763V27.6665H12.9846V29.8332H9.78892V42.8332H6.59329ZM16.1803 42.8332V40.6665H14.5824V34.1665H16.1803V31.9998H24.1694V34.1665H25.7672V40.6665H24.1694V42.8332H16.1803ZM17.778 40.6665H22.5715V34.1665H17.778V40.6665ZM27.365 42.8332V31.9998H36.952V34.1665H38.5498V42.8332H35.3541V34.1665H30.5607V42.8332H27.365ZM44.9411 29.8332V27.6665H48.1368V29.8332H44.9411ZM41.7455 42.8332V40.6665H44.9411V34.1665H43.3433V31.9998H48.1368V40.6665H51.3324V42.8332H41.7455ZM54.5281 44.9998V42.8332H60.9194V40.6665H54.5281V38.4998H52.9302V34.1665H54.5281V31.9998H64.115V42.8332H62.5172V44.9998H54.5281ZM56.1259 38.4998H60.9194V34.1665H56.1259V38.4998ZM65.7129 42.8332V27.6665H68.9085V31.9998H75.2998V34.1665H76.8976V42.8332H73.702V34.1665H68.9085V42.8332H65.7129ZM83.289 42.8332V34.1665H80.0933V31.9998H83.289V27.6665H86.4846V31.9998H89.6802V34.1665H86.4846V42.8332H83.289Z" fill="#8248F5"/>
</g>
</g>
<defs>
<clipPath id="clip0_72_1869">
<rect width="90" height="45" fill="white"/>
</clipPath>
</defs>
</svg>
