<svg width="24" height="24" viewBox="0 0 24 24" fill="none" xmlns="http://www.w3.org/2000/svg">
<path d="M16.9998 4.49984H7.83317V15.3332L13.6665 21.1665L14.7082 20.1248C14.8054 20.0276 14.8853 19.8957 14.9478 19.729C15.0103 19.5623 15.0415 19.4026 15.0415 19.2498V18.9582L14.1248 15.3332H19.4998C19.9443 15.3332 20.3332 15.1665 20.6665 14.8332C20.9998 14.4998 21.1665 14.1109 21.1665 13.6665V11.9998C21.1665 11.9026 21.1526 11.7984 21.1248 11.6873C21.0971 11.5762 21.0693 11.4721 21.0415 11.3748L18.5415 5.49984C18.4165 5.22206 18.2082 4.98595 17.9165 4.7915C17.6248 4.59706 17.3193 4.49984 16.9998 4.49984ZM9.49984 6.1665H16.9998L19.4998 11.9998V13.6665H11.9998L13.1248 18.2498L9.49984 14.6248V6.1665ZM7.83317 15.3332V13.6665H5.33317V6.1665H7.83317V4.49984H3.6665V15.3332H7.83317Z" fill="#9797A8"/>
</svg>
