<svg width="20" height="20" viewBox="0 0 20 20" fill="none" xmlns="http://www.w3.org/2000/svg">
<g clip-path="url(#clip0_14_1391)">
<path d="M5.00001 2.49983L14.1667 2.49984L14.1667 13.3332L8.33334 19.1665L7.29168 18.1248C7.19445 18.0276 7.11459 17.8957 7.05209 17.729C6.98959 17.5623 6.95834 17.4026 6.95834 17.2498L6.95834 16.9582L7.87501 13.3332L2.50001 13.3332C2.05557 13.3332 1.66668 13.1665 1.33334 12.8332C1.00001 12.4998 0.833344 12.1109 0.833344 11.6665L0.833344 9.99983C0.833344 9.90261 0.847234 9.79845 0.87501 9.68733C0.902789 9.57622 0.930566 9.47206 0.958344 9.37483L3.45834 3.49983C3.58334 3.22206 3.79168 2.98595 4.08334 2.7915C4.37501 2.59706 4.68057 2.49983 5.00001 2.49983ZM12.5 4.1665L5.00001 4.1665L2.50001 9.99983L2.50001 11.6665L10 11.6665L8.87501 16.2498L12.5 12.6248L12.5 4.1665ZM14.1667 13.3332L14.1667 11.6665L16.6667 11.6665L16.6667 4.1665L14.1667 4.1665L14.1667 2.49984L18.3333 2.49984L18.3333 13.3332L14.1667 13.3332Z" fill="#FF6060"/>
</g>
<defs>
<clipPath id="clip0_14_1391">
<rect width="20" height="20" fill="white" transform="translate(20 20) rotate(-180)"/>
</clipPath>
</defs>
</svg>
