<svg width="19" height="18" viewBox="0 0 19 18" fill="none" xmlns="http://www.w3.org/2000/svg">
<g clip-path="url(#clip0_42_269)" filter="url(#filter0_d_42_269)">
<g filter="url(#filter1_d_42_269)">
<path d="M13.0002 15.9998H5.66683V7.33317L10.3335 2.6665L11.1668 3.49984C11.2446 3.57762 11.3085 3.68317 11.3585 3.8165C11.4085 3.94984 11.4335 4.07762 11.4335 4.19984V4.43317L10.7002 7.33317H15.0002C15.3557 7.33317 15.6668 7.4665 15.9335 7.73317C16.2002 7.99984 16.3335 8.31095 16.3335 8.6665V9.99984C16.3335 10.0776 16.3224 10.1609 16.3002 10.2498C16.2779 10.3387 16.2557 10.4221 16.2335 10.4998L14.2335 15.1998C14.1335 15.4221 13.9668 15.6109 13.7335 15.7665C13.5002 15.9221 13.2557 15.9998 13.0002 15.9998ZM7.00016 14.6665H13.0002L15.0002 9.99984V8.6665H9.00016L9.90016 4.99984L7.00016 7.89984V14.6665ZM5.66683 7.33317V8.6665H3.66683V14.6665H5.66683V15.9998H2.3335V7.33317H5.66683Z" fill="white"/>
</g>
</g>
<defs>
<filter id="filter0_d_42_269" x="-1" y="0" width="20" height="20" filterUnits="userSpaceOnUse" color-interpolation-filters="sRGB">
<feFlood flood-opacity="0" result="BackgroundImageFix"/>
<feColorMatrix in="SourceAlpha" type="matrix" values="0 0 0 0 0 0 0 0 0 0 0 0 0 0 0 0 0 0 127 0" result="hardAlpha"/>
<feOffset/>
<feGaussianBlur stdDeviation="1"/>
<feComposite in2="hardAlpha" operator="out"/>
<feColorMatrix type="matrix" values="0 0 0 0 0 0 0 0 0 0 0 0 0 0 0 0 0 0 0.25 0"/>
<feBlend mode="normal" in2="BackgroundImageFix" result="effect1_dropShadow_42_269"/>
<feBlend mode="normal" in="SourceGraphic" in2="effect1_dropShadow_42_269" result="shape"/>
</filter>
<filter id="filter1_d_42_269" x="0.333496" y="0.666504" width="18" height="17.3335" filterUnits="userSpaceOnUse" color-interpolation-filters="sRGB">
<feFlood flood-opacity="0" result="BackgroundImageFix"/>
<feColorMatrix in="SourceAlpha" type="matrix" values="0 0 0 0 0 0 0 0 0 0 0 0 0 0 0 0 0 0 127 0" result="hardAlpha"/>
<feOffset/>
<feGaussianBlur stdDeviation="1"/>
<feComposite in2="hardAlpha" operator="out"/>
<feColorMatrix type="matrix" values="0 0 0 0 0 0 0 0 0 0 0 0 0 0 0 0 0 0 0.25 0"/>
<feBlend mode="normal" in2="BackgroundImageFix" result="effect1_dropShadow_42_269"/>
<feBlend mode="normal" in="SourceGraphic" in2="effect1_dropShadow_42_269" result="shape"/>
</filter>
<clipPath id="clip0_42_269">
<rect width="16" height="16" fill="white" transform="translate(1 2)"/>
</clipPath>
</defs>
</svg>
