<svg width="24" height="24" viewBox="0 0 24 24" fill="none" xmlns="http://www.w3.org/2000/svg">
<path d="M16.9998 19.5002H7.83317V8.66683L13.6665 2.8335L14.7082 3.87516C14.8054 3.97239 14.8853 4.10433 14.9478 4.271C15.0103 4.43766 15.0415 4.59739 15.0415 4.75016V5.04183L14.1248 8.66683H19.4998C19.9443 8.66683 20.3332 8.8335 20.6665 9.16683C20.9998 9.50016 21.1665 9.88905 21.1665 10.3335V12.0002C21.1665 12.0974 21.1526 12.2016 21.1248 12.3127C21.0971 12.4238 21.0693 12.5279 21.0415 12.6252L18.5415 18.5002C18.4165 18.7779 18.2082 19.0141 17.9165 19.2085C17.6248 19.4029 17.3193 19.5002 16.9998 19.5002ZM9.49984 17.8335H16.9998L19.4998 12.0002V10.3335H11.9998L13.1248 5.75016L9.49984 9.37516V17.8335ZM7.83317 8.66683V10.3335H5.33317V17.8335H7.83317V19.5002H3.6665V8.66683H7.83317Z" fill="#9797A8"/>
</svg>
